{"title":"Whiteout.2009.BRRIP.H264-ZEKTORM","uid":5268656,"size":744123232,"categoryP":"video","categoryS":"movies","magnet":"?xt=urn:btih:30899ad72642cb5b49daefcf1bce3da884f80d52&amp;dn=Whiteout.2009.BRRIP.H264-ZEKTORM&amp;tr=udp%3A%2F%2Ftracker.openbittorrent.com%3A80&amp;tr=udp%3A%2F%2Fopen.demonii.com%3A1337&amp;tr=udp%3A%2F%2Ftracker.coppersurfer.tk%3A6969&amp;tr=udp%3A%2F%2Fexodus.desync.com%3A6969","seeders":0,"leechers":1,"uploader":"blowley","files":5,"time":1262974515,"description":"Title                            : Whiteout\nYear                             : 2009\nGenre                            : Action | Crime | Drama | Mystery | Thriller\niMDB URL                         : http://www.imdb.com/title/tt0365929\n\nComplete name                    : Whiteout.2009.BRRIP.H264-ZEKTORM.mp4\nFormat                           : MPEG-4\nFormat profile                   : Base Media\nCodec ID                         : isom\nFile size                        : 701 MiB\nDuration                         : 1h 40mn\nOverall bit rate                 : 973 Kbps\nSubtitles                        : English, Spanish, French (Format: VobSub)\n\nVideo\nFormat                           : AVC\nFormat/Info                      : Advanced Video Codec\nFormat profile                   : &lt;a class=&quot;__cf_email__&quot; href=&quot;/cdn-cgi/l/email-protection&quot; data-cfemail=&quot;b1f9d8d6d9f1fd859f80&quot;&gt;[email&amp;#160;protected]&lt;/a&gt;&lt;script cf-hash='f9e31' type=&quot;text/javascript&quot;&gt;\n/* &lt;![CDATA[ */!function(){try{var t=&quot;currentScript&quot;in document?document.currentScript:function(){for(var t=document.getElementsByTagName(&quot;script&quot;),e=t.length;e--;)if(t[e].getAttribute(&quot;cf-hash&quot;))return t[e]}();if(t&amp;&amp;t.previousSibling){var e,r,n,i,c=t.previousSibling,a=c.getAttribute(&quot;data-cfemail&quot;);if(a){for(e=&quot;&quot;,r=parseInt(a.substr(0,2),16),n=2;a.length-n;n+=2)i=parseInt(a.substr(n,2),16)^r,e+=String.fromCharCode(i);e=document.createTextNode(e),c.parentNode.replaceChild(e,c)}}}catch(u){}}();/* ]]&gt; */&lt;/script&gt;\nFormat settings, CABAC           : Yes\nFormat settings, ReFrames        : 8 frames\nCodec ID                         : avc1\nCodec ID/Info                    : Advanced Video Coding\nDuration                         : 1h 40mn\nBit rate mode                    : Variable\nBit rate                         : 886 Kbps\nMaximum bit rate                 : 9136 Kbps\nWidth                            : 816 pixels\nHeight                           : 336 pixels\nDisplay aspect ratio             : 2.429\nFrame rate mode                  : Constant\nFrame rate                       : 23.976 fps\nResolution                       : 24 bits\nColorimetry                      : 4:2:0\nScan type                        : Progressive\nBits/(Pixel*Frame)               : 0.135\nStream size                      : 638 MiB (91%)\nTitle                            : Video\nWriting library                  : x264\n\nAudio\nFormat                           : AAC\nFormat/Info                      : Advanced Audio Codec\nFormat version                   : Version 4\nFormat profile                   : LC\nFormat settings, SBR             : Yes\nFormat settings, PS              : No\nCodec ID                         : 40\nDuration                         : 1h 40mn\nBit rate mode                    : Variable\nBit rate                         : 84.0 Kbps\nMaximum bit rate                 : 106 Kbps\nChannel(s)                       : 2 channels\nChannel positions                : L R\nSampling rate                    : 48.0 KHz\nResolution                       : 16 bits\nStream size                      : 60.5 MiB (9%)\nTitle                            : English\nLanguage                         : English\n","torrent":{"xt":"urn:btih:30899ad72642cb5b49daefcf1bce3da884f80d52","amp;dn":"Whiteout.2009.BRRIP.H264-ZEKTORM","amp;tr":["udp%3A%2F%2Ftracker.openbittorrent.com%3A80","udp%3A%2F%2Fopen.demonii.com%3A1337","udp%3A%2F%2Ftracker.coppersurfer.tk%3A6969","udp%3A%2F%2Fexodus.desync.com%3A6969"],"infoHash":"30899ad72642cb5b49daefcf1bce3da884f80d52","infoHashBuffer":{"type":"Buffer","data":[48,137,154,215,38,66,203,91,73,218,239,207,27,206,61,168,132,248,13,82]},"announce":[],"urlList":[]}}